<mxfile host="Electron" modified="2023-04-28T06:13:01.964Z" agent="Mozilla/5.0 (Windows NT 10.0; Win64; x64) AppleWebKit/537.36 (KHTML, like Gecko) draw.io/21.2.1 Chrome/112.0.5615.87 Electron/24.1.2 Safari/537.36" etag="wroq3DlnGNdJFVHlfCNI" version="21.2.1" type="device">
  <diagram name="Page-1" id="_xHEEJTH3MvkhR-p7Dp3">
    <mxGraphModel dx="1658" dy="820" grid="1" gridSize="10" guides="1" tooltips="1" connect="1" arrows="1" fold="1" page="1" pageScale="1" pageWidth="850" pageHeight="1100" math="0" shadow="0">
      <root>
        <mxCell id="0" />
        <mxCell id="1" parent="0" />
        <mxCell id="-kQ0u5BdLZ8N0pFHM2hj-1" value="" style="swimlane;startSize=0;" parent="1" vertex="1">
          <mxGeometry x="100" y="241" width="730" height="440" as="geometry" />
        </mxCell>
        <mxCell id="-kQ0u5BdLZ8N0pFHM2hj-4" value="Make Order" style="rounded=1;whiteSpace=wrap;html=1;" parent="-kQ0u5BdLZ8N0pFHM2hj-1" vertex="1">
          <mxGeometry x="150" y="40" width="120" height="60" as="geometry" />
        </mxCell>
        <mxCell id="-kQ0u5BdLZ8N0pFHM2hj-5" value="Cancel Order" style="rounded=1;whiteSpace=wrap;html=1;" parent="-kQ0u5BdLZ8N0pFHM2hj-1" vertex="1">
          <mxGeometry x="150" y="130" width="120" height="60" as="geometry" />
        </mxCell>
        <mxCell id="-kQ0u5BdLZ8N0pFHM2hj-6" value="Check Inventory" style="rounded=1;whiteSpace=wrap;html=1;" parent="-kQ0u5BdLZ8N0pFHM2hj-1" vertex="1">
          <mxGeometry x="560" y="340" width="120" height="60" as="geometry" />
        </mxCell>
        <mxCell id="-kQ0u5BdLZ8N0pFHM2hj-7" value="Decrement Inventory" style="rounded=1;whiteSpace=wrap;html=1;" parent="-kQ0u5BdLZ8N0pFHM2hj-1" vertex="1">
          <mxGeometry x="290" y="20" width="120" height="60" as="geometry" />
        </mxCell>
        <mxCell id="-kQ0u5BdLZ8N0pFHM2hj-8" value="Increment Inventory" style="rounded=1;whiteSpace=wrap;html=1;" parent="-kQ0u5BdLZ8N0pFHM2hj-1" vertex="1">
          <mxGeometry x="290" y="150" width="120" height="60" as="geometry" />
        </mxCell>
        <mxCell id="-kQ0u5BdLZ8N0pFHM2hj-22" value="Inventory Sufficient" style="rounded=1;whiteSpace=wrap;html=1;" parent="-kQ0u5BdLZ8N0pFHM2hj-1" vertex="1">
          <mxGeometry x="590" y="200" width="120" height="60" as="geometry" />
        </mxCell>
        <mxCell id="-kQ0u5BdLZ8N0pFHM2hj-20" value="Inventory Low" style="rounded=1;whiteSpace=wrap;html=1;" parent="-kQ0u5BdLZ8N0pFHM2hj-1" vertex="1">
          <mxGeometry x="470" y="90" width="120" height="60" as="geometry" />
        </mxCell>
        <mxCell id="-kQ0u5BdLZ8N0pFHM2hj-25" value="Order Product" style="rounded=1;whiteSpace=wrap;html=1;" parent="-kQ0u5BdLZ8N0pFHM2hj-1" vertex="1">
          <mxGeometry x="305" y="240" width="120" height="60" as="geometry" />
        </mxCell>
        <mxCell id="-kQ0u5BdLZ8N0pFHM2hj-33" value="View Orders" style="rounded=1;whiteSpace=wrap;html=1;" parent="-kQ0u5BdLZ8N0pFHM2hj-1" vertex="1">
          <mxGeometry x="220" y="340" width="120" height="60" as="geometry" />
        </mxCell>
        <mxCell id="-kQ0u5BdLZ8N0pFHM2hj-34" value="View Customers" style="rounded=1;whiteSpace=wrap;html=1;" parent="-kQ0u5BdLZ8N0pFHM2hj-1" vertex="1">
          <mxGeometry x="50" y="340" width="120" height="60" as="geometry" />
        </mxCell>
        <mxCell id="-kQ0u5BdLZ8N0pFHM2hj-43" value="" style="endArrow=classic;html=1;rounded=0;entryX=0;entryY=0.5;entryDx=0;entryDy=0;exitX=1;exitY=0.5;exitDx=0;exitDy=0;" parent="-kQ0u5BdLZ8N0pFHM2hj-1" source="-kQ0u5BdLZ8N0pFHM2hj-4" target="-kQ0u5BdLZ8N0pFHM2hj-7" edge="1">
          <mxGeometry width="50" height="50" relative="1" as="geometry">
            <mxPoint x="190" y="70" as="sourcePoint" />
            <mxPoint x="240" y="20" as="targetPoint" />
          </mxGeometry>
        </mxCell>
        <mxCell id="-kQ0u5BdLZ8N0pFHM2hj-44" value="" style="endArrow=classic;html=1;rounded=0;entryX=0;entryY=0.5;entryDx=0;entryDy=0;exitX=1;exitY=0.5;exitDx=0;exitDy=0;" parent="-kQ0u5BdLZ8N0pFHM2hj-1" source="-kQ0u5BdLZ8N0pFHM2hj-5" target="-kQ0u5BdLZ8N0pFHM2hj-8" edge="1">
          <mxGeometry width="50" height="50" relative="1" as="geometry">
            <mxPoint x="200" y="280" as="sourcePoint" />
            <mxPoint x="250" y="230" as="targetPoint" />
          </mxGeometry>
        </mxCell>
        <mxCell id="-kQ0u5BdLZ8N0pFHM2hj-46" value="" style="endArrow=none;html=1;rounded=0;entryX=0.5;entryY=1;entryDx=0;entryDy=0;exitX=0.5;exitY=0;exitDx=0;exitDy=0;" parent="-kQ0u5BdLZ8N0pFHM2hj-1" source="-kQ0u5BdLZ8N0pFHM2hj-34" target="-kQ0u5BdLZ8N0pFHM2hj-5" edge="1">
          <mxGeometry width="50" height="50" relative="1" as="geometry">
            <mxPoint x="80" y="260" as="sourcePoint" />
            <mxPoint x="130" y="210" as="targetPoint" />
          </mxGeometry>
        </mxCell>
        <mxCell id="-kQ0u5BdLZ8N0pFHM2hj-47" value="" style="endArrow=none;html=1;rounded=0;entryX=0;entryY=0.5;entryDx=0;entryDy=0;exitX=0.5;exitY=0;exitDx=0;exitDy=0;" parent="-kQ0u5BdLZ8N0pFHM2hj-1" source="-kQ0u5BdLZ8N0pFHM2hj-34" target="-kQ0u5BdLZ8N0pFHM2hj-4" edge="1">
          <mxGeometry width="50" height="50" relative="1" as="geometry">
            <mxPoint x="50" y="280" as="sourcePoint" />
            <mxPoint x="100" y="230" as="targetPoint" />
          </mxGeometry>
        </mxCell>
        <mxCell id="-kQ0u5BdLZ8N0pFHM2hj-48" value="View Products" style="rounded=1;whiteSpace=wrap;html=1;" parent="-kQ0u5BdLZ8N0pFHM2hj-1" vertex="1">
          <mxGeometry x="390" y="340" width="120" height="60" as="geometry" />
        </mxCell>
        <mxCell id="-kQ0u5BdLZ8N0pFHM2hj-50" value="System Bounds" style="text;html=1;align=center;verticalAlign=middle;resizable=0;points=[];autosize=1;strokeColor=none;fillColor=none;" parent="-kQ0u5BdLZ8N0pFHM2hj-1" vertex="1">
          <mxGeometry x="10" width="110" height="30" as="geometry" />
        </mxCell>
        <mxCell id="-kQ0u5BdLZ8N0pFHM2hj-51" value="" style="endArrow=classic;html=1;rounded=0;entryX=0.5;entryY=1;entryDx=0;entryDy=0;exitX=0.5;exitY=0;exitDx=0;exitDy=0;" parent="-kQ0u5BdLZ8N0pFHM2hj-1" source="-kQ0u5BdLZ8N0pFHM2hj-48" target="-kQ0u5BdLZ8N0pFHM2hj-20" edge="1">
          <mxGeometry width="50" height="50" relative="1" as="geometry">
            <mxPoint x="440" y="270" as="sourcePoint" />
            <mxPoint x="490" y="220" as="targetPoint" />
          </mxGeometry>
        </mxCell>
        <mxCell id="-kQ0u5BdLZ8N0pFHM2hj-52" value="" style="endArrow=classic;html=1;rounded=0;entryX=0;entryY=0.5;entryDx=0;entryDy=0;exitX=0.5;exitY=0;exitDx=0;exitDy=0;" parent="-kQ0u5BdLZ8N0pFHM2hj-1" source="-kQ0u5BdLZ8N0pFHM2hj-48" target="-kQ0u5BdLZ8N0pFHM2hj-22" edge="1">
          <mxGeometry width="50" height="50" relative="1" as="geometry">
            <mxPoint x="500" y="290" as="sourcePoint" />
            <mxPoint x="550" y="240" as="targetPoint" />
          </mxGeometry>
        </mxCell>
        <mxCell id="-kQ0u5BdLZ8N0pFHM2hj-53" value="&lt;b&gt;OR&lt;/b&gt;" style="text;html=1;strokeColor=none;fillColor=none;align=center;verticalAlign=middle;whiteSpace=wrap;rounded=0;" parent="-kQ0u5BdLZ8N0pFHM2hj-1" vertex="1">
          <mxGeometry x="20" y="100" width="60" height="30" as="geometry" />
        </mxCell>
        <mxCell id="-kQ0u5BdLZ8N0pFHM2hj-56" value="&lt;b&gt;OR&lt;/b&gt;" style="text;html=1;strokeColor=none;fillColor=none;align=center;verticalAlign=middle;whiteSpace=wrap;rounded=0;" parent="-kQ0u5BdLZ8N0pFHM2hj-1" vertex="1">
          <mxGeometry x="490" y="240" width="60" height="30" as="geometry" />
        </mxCell>
        <mxCell id="-kQ0u5BdLZ8N0pFHM2hj-57" value="" style="endArrow=classic;html=1;rounded=0;exitX=0.25;exitY=1;exitDx=0;exitDy=0;entryX=0.75;entryY=0;entryDx=0;entryDy=0;" parent="-kQ0u5BdLZ8N0pFHM2hj-1" source="-kQ0u5BdLZ8N0pFHM2hj-20" target="-kQ0u5BdLZ8N0pFHM2hj-25" edge="1">
          <mxGeometry width="50" height="50" relative="1" as="geometry">
            <mxPoint x="220" y="300" as="sourcePoint" />
            <mxPoint x="270" y="250" as="targetPoint" />
          </mxGeometry>
        </mxCell>
        <mxCell id="-kQ0u5BdLZ8N0pFHM2hj-59" value="&lt;b&gt;THEN&lt;/b&gt;" style="text;html=1;strokeColor=none;fillColor=none;align=center;verticalAlign=middle;whiteSpace=wrap;rounded=0;" parent="-kQ0u5BdLZ8N0pFHM2hj-1" vertex="1">
          <mxGeometry x="400" y="219" width="60" height="30" as="geometry" />
        </mxCell>
        <mxCell id="-kQ0u5BdLZ8N0pFHM2hj-60" value="" style="endArrow=none;html=1;rounded=0;exitX=0.5;exitY=0;exitDx=0;exitDy=0;entryX=0.5;entryY=1;entryDx=0;entryDy=0;" parent="-kQ0u5BdLZ8N0pFHM2hj-1" source="-kQ0u5BdLZ8N0pFHM2hj-48" target="-kQ0u5BdLZ8N0pFHM2hj-25" edge="1">
          <mxGeometry width="50" height="50" relative="1" as="geometry">
            <mxPoint x="220" y="330" as="sourcePoint" />
            <mxPoint x="270" y="280" as="targetPoint" />
          </mxGeometry>
        </mxCell>
        <mxCell id="-kQ0u5BdLZ8N0pFHM2hj-61" value="&lt;b&gt;THEN&lt;/b&gt;" style="text;html=1;align=center;verticalAlign=middle;resizable=0;points=[];autosize=1;strokeColor=none;fillColor=none;" parent="-kQ0u5BdLZ8N0pFHM2hj-1" vertex="1">
          <mxGeometry x="270" y="80" width="60" height="30" as="geometry" />
        </mxCell>
        <mxCell id="-kQ0u5BdLZ8N0pFHM2hj-62" value="&lt;b&gt;THEN&lt;/b&gt;" style="text;html=1;align=center;verticalAlign=middle;resizable=0;points=[];autosize=1;strokeColor=none;fillColor=none;" parent="-kQ0u5BdLZ8N0pFHM2hj-1" vertex="1">
          <mxGeometry x="270" y="130" width="60" height="30" as="geometry" />
        </mxCell>
        <mxCell id="XXS2FZA_MLmcG4iPWI_T-1" value="" style="endArrow=classic;html=1;rounded=0;entryX=0.5;entryY=1;entryDx=0;entryDy=0;exitX=0.5;exitY=0;exitDx=0;exitDy=0;" edge="1" parent="-kQ0u5BdLZ8N0pFHM2hj-1" source="-kQ0u5BdLZ8N0pFHM2hj-25" target="-kQ0u5BdLZ8N0pFHM2hj-8">
          <mxGeometry width="50" height="50" relative="1" as="geometry">
            <mxPoint x="240" y="289" as="sourcePoint" />
            <mxPoint x="290" y="239" as="targetPoint" />
          </mxGeometry>
        </mxCell>
        <mxCell id="XXS2FZA_MLmcG4iPWI_T-2" value="&lt;b&gt;THEN&lt;/b&gt;" style="text;html=1;align=center;verticalAlign=middle;resizable=0;points=[];autosize=1;strokeColor=none;fillColor=none;" vertex="1" parent="-kQ0u5BdLZ8N0pFHM2hj-1">
          <mxGeometry x="295" y="210" width="60" height="30" as="geometry" />
        </mxCell>
        <mxCell id="-kQ0u5BdLZ8N0pFHM2hj-2" value="Customer" style="shape=umlActor;verticalLabelPosition=bottom;verticalAlign=top;html=1;outlineConnect=0;" parent="1" vertex="1">
          <mxGeometry x="20" y="301" width="60" height="100" as="geometry" />
        </mxCell>
        <mxCell id="-kQ0u5BdLZ8N0pFHM2hj-3" value="Employee" style="shape=umlActor;verticalLabelPosition=bottom;verticalAlign=top;html=1;outlineConnect=0;" parent="1" vertex="1">
          <mxGeometry x="440" y="711" width="50" height="100" as="geometry" />
        </mxCell>
        <mxCell id="-kQ0u5BdLZ8N0pFHM2hj-12" value="" style="endArrow=none;html=1;rounded=0;entryX=0;entryY=0.5;entryDx=0;entryDy=0;exitX=0.5;exitY=0.5;exitDx=0;exitDy=0;exitPerimeter=0;" parent="1" source="-kQ0u5BdLZ8N0pFHM2hj-2" target="-kQ0u5BdLZ8N0pFHM2hj-4" edge="1">
          <mxGeometry width="50" height="50" relative="1" as="geometry">
            <mxPoint x="190" y="401" as="sourcePoint" />
            <mxPoint x="240" y="351" as="targetPoint" />
          </mxGeometry>
        </mxCell>
        <mxCell id="-kQ0u5BdLZ8N0pFHM2hj-13" value="" style="endArrow=none;html=1;rounded=0;entryX=0;entryY=0.5;entryDx=0;entryDy=0;exitX=0.5;exitY=0.5;exitDx=0;exitDy=0;exitPerimeter=0;" parent="1" source="-kQ0u5BdLZ8N0pFHM2hj-2" target="-kQ0u5BdLZ8N0pFHM2hj-5" edge="1">
          <mxGeometry width="50" height="50" relative="1" as="geometry">
            <mxPoint x="60" y="551" as="sourcePoint" />
            <mxPoint x="110" y="501" as="targetPoint" />
          </mxGeometry>
        </mxCell>
        <mxCell id="-kQ0u5BdLZ8N0pFHM2hj-35" value="" style="endArrow=none;html=1;rounded=0;entryX=0.5;entryY=1;entryDx=0;entryDy=0;exitX=0.5;exitY=0;exitDx=0;exitDy=0;exitPerimeter=0;" parent="1" source="-kQ0u5BdLZ8N0pFHM2hj-3" target="-kQ0u5BdLZ8N0pFHM2hj-33" edge="1">
          <mxGeometry width="50" height="50" relative="1" as="geometry">
            <mxPoint x="440" y="651" as="sourcePoint" />
            <mxPoint x="490" y="601" as="targetPoint" />
          </mxGeometry>
        </mxCell>
        <mxCell id="-kQ0u5BdLZ8N0pFHM2hj-36" value="" style="endArrow=none;html=1;rounded=0;entryX=0.5;entryY=1;entryDx=0;entryDy=0;exitX=0.5;exitY=0.5;exitDx=0;exitDy=0;exitPerimeter=0;" parent="1" source="-kQ0u5BdLZ8N0pFHM2hj-3" target="-kQ0u5BdLZ8N0pFHM2hj-34" edge="1">
          <mxGeometry width="50" height="50" relative="1" as="geometry">
            <mxPoint x="465" y="761" as="sourcePoint" />
            <mxPoint x="220" y="611" as="targetPoint" />
          </mxGeometry>
        </mxCell>
        <mxCell id="-kQ0u5BdLZ8N0pFHM2hj-40" value="" style="endArrow=none;html=1;rounded=0;entryX=0.5;entryY=1;entryDx=0;entryDy=0;exitX=0.5;exitY=0.5;exitDx=0;exitDy=0;exitPerimeter=0;" parent="1" source="-kQ0u5BdLZ8N0pFHM2hj-3" target="-kQ0u5BdLZ8N0pFHM2hj-6" edge="1">
          <mxGeometry width="50" height="50" relative="1" as="geometry">
            <mxPoint x="570" y="461" as="sourcePoint" />
            <mxPoint x="620" y="411" as="targetPoint" />
          </mxGeometry>
        </mxCell>
        <mxCell id="-kQ0u5BdLZ8N0pFHM2hj-49" value="" style="endArrow=none;html=1;rounded=0;entryX=0.5;entryY=1;entryDx=0;entryDy=0;exitX=0.5;exitY=0;exitDx=0;exitDy=0;exitPerimeter=0;" parent="1" source="-kQ0u5BdLZ8N0pFHM2hj-3" target="-kQ0u5BdLZ8N0pFHM2hj-48" edge="1">
          <mxGeometry width="50" height="50" relative="1" as="geometry">
            <mxPoint x="490" y="671" as="sourcePoint" />
            <mxPoint x="540" y="621" as="targetPoint" />
          </mxGeometry>
        </mxCell>
        <mxCell id="-kQ0u5BdLZ8N0pFHM2hj-63" value="&lt;b&gt;SIMULATED&lt;/b&gt;" style="text;html=1;strokeColor=none;fillColor=none;align=center;verticalAlign=middle;whiteSpace=wrap;rounded=0;" parent="1" vertex="1">
          <mxGeometry x="20" y="421" width="60" height="30" as="geometry" />
        </mxCell>
        <mxCell id="-kQ0u5BdLZ8N0pFHM2hj-64" value="&lt;b&gt;USER&lt;/b&gt;" style="text;html=1;align=center;verticalAlign=middle;resizable=0;points=[];autosize=1;strokeColor=none;fillColor=none;" parent="1" vertex="1">
          <mxGeometry x="435" y="829" width="60" height="30" as="geometry" />
        </mxCell>
      </root>
    </mxGraphModel>
  </diagram>
</mxfile>
